<?xml version="1.0" standalone="no"?>
<!DOCTYPE svg PUBLIC "-//W3C//DTD SVG 20010904//EN"
 "http://www.w3.org/TR/2001/REC-SVG-20010904/DTD/svg10.dtd">
<svg version="1.0" xmlns="http://www.w3.org/2000/svg"
 width="260.000000pt" height="260.000000pt" viewBox="0 0 260.000000 260.000000"
 preserveAspectRatio="xMidYMid meet">
<metadata>
Created by potrace 1.14, written by Peter Selinger 2001-2017
</metadata>
<g transform="translate(0.000000,260.000000) scale(0.100000,-0.100000)"
fill="#000000" stroke="none">
<path d="M575 2518 c-7 -20 -495 -2423 -495 -2436 0 -9 237 -12 975 -12 536 0
975 1 975 3 0 5 491 2410 497 2435 l5 22 -976 0 c-772 0 -978 -3 -981 -12z
m998 -567 c84 -33 156 -95 192 -166 27 -53 30 -68 29 -149 0 -61 -5 -103 -16
-128 -24 -55 -95 -126 -156 -157 l-54 -27 39 -12 c134 -42 232 -198 221 -351
-9 -129 -84 -233 -205 -289 -97 -44 -164 -52 -470 -52 l-273 0 0 681 0 680
318 -3 c305 -3 319 -4 375 -27z"/>
<path d="M1060 1621 l0 -221 186 0 c216 0 250 7 310 65 49 47 69 106 60 179
-9 76 -46 130 -113 163 -57 27 -63 28 -250 32 l-193 3 0 -221z"/>
<path d="M1060 1009 l0 -240 208 3 c185 3 212 5 252 24 97 45 133 109 128 225
-2 63 -8 82 -30 115 -65 93 -135 114 -380 114 l-178 0 0 -241z"/>
</g>
</svg>
